{"title":"Weekender.[2011].DvdRip.XviD-Kna","uid":6773291,"size":1175203840,"categoryP":"video","categoryS":"movies","magnet":"?xt=urn:btih:bd7be19186506f8fd27dcea04ca68e221615a1a9&amp;dn=Weekender.%5B2011%5D.DvdRip.XviD-Kna&amp;tr=udp%3A%2F%2Ftracker.openbittorrent.com%3A80&amp;tr=udp%3A%2F%2Fopen.demonii.com%3A1337&amp;tr=udp%3A%2F%2Ftracker.coppersurfer.tk%3A6969&amp;tr=udp%3A%2F%2Fexodus.desync.com%3A6969","seeders":1,"leechers":0,"uploader":"Jon.Pson","files":-1,"time":1319643634,"description":"1990. The rave scene has arrived from Ibiza and warehouse parties are exploding across the UK bringing phenomenal wealth to the organisers. In Manchester, best mates Matt and Dylan are in their early 20's and long to be more than just punters. As the government moves to outlaw the scene, it's now or never and they quickly rise through the ranks to join the promoting elite. They are taken on a wild journey from the exclusive VIP rooms of London clubs to the outrageous parties in Ibiza super-villas and the hedonism of Amsterdam. It's everything they dreamed of and more. But as their success continues to grow, they attract a more dark and sinister world. Matt and Dylan start to drift apart as they are forced to question the dreams they set out to achieve and their once solid friendship.\n\n\n\n\nGeneral\nComplete name                    : Weekender.[2011].DvdRip.XviD-KnÃƒÂ£\\Weekender.[2011].DvdRip.XviD-KnÃƒÂ£.avi\nFormat                           : AVI\nFormat/Info                      : Audio Video Interleave\nFile size                        : 1.09 GiB\nDuration                         : 1h 26mn\nOverall bit rate                 : 1 815 Kbps\nWriting application              : VirtualDubMod 1.5.4.1 (build 2178/release)\nWriting library                  : VirtualDubMod build 2178/release\n\nVideo\nID                               : 0\nFormat                           : MPEG-4 Visual\nFormat profile                   : Advanced Simple@L5\nFormat settings, BVOP            : No\nFormat settings, QPel            : No\nFormat settings, GMC             : No warppoints\nFormat settings, Matrix          : Custom\nCodec ID                         : XVID\nCodec ID/Hint                    : XviD\nDuration                         : 1h 26mn\nBit rate                         : 1 361 Kbps\nWidth                            : 720 pixels\nHeight                           : 304 pixels\nDisplay aspect ratio             : 2.35:1\nFrame rate                       : 25.000 fps\nColor space                      : YUV\nChroma subsampling               : 4:2:0\nBit depth                        : 8 bits\nScan type                        : Progressive\nCompression mode                 : Lossy\nBits/(Pixel*Frame)               : 0.249\nStream size                      : 840 MiB (75%)\nWriting library                  : XviD 1.2.1 (UTC 2008-12-04)\n\nAudio\nID                               : 1\nFormat                           : AC-3\nFormat/Info                      : Audio Coding 3\nMode extension                   : CM (complete main)\nCodec ID                         : 2000\nDuration                         : 1h 26mn\nBit rate mode                    : Constant\nBit rate                         : 448 Kbps\nChannel(s)                       : 6 channels\nChannel positions                : Front: L C R, Side: L R, LFE\nSampling rate                    : 48.0 KHz\nBit depth                        : 16 bits\nCompression mode                 : Lossy\nStream size                      : 277 MiB (25%)\nAlignment                        : Split accross interleaves\nInterleave, duration             : 96 ms (2.40 video frames)\nInterleave, preload duration     : 96 ms\nLanguage                         : English\n\n","torrent":{"xt":"urn:btih:bd7be19186506f8fd27dcea04ca68e221615a1a9","amp;dn":"Weekender.%5B2011%5D.DvdRip.XviD-Kna","amp;tr":["udp%3A%2F%2Ftracker.openbittorrent.com%3A80","udp%3A%2F%2Fopen.demonii.com%3A1337","udp%3A%2F%2Ftracker.coppersurfer.tk%3A6969","udp%3A%2F%2Fexodus.desync.com%3A6969"],"infoHash":"bd7be19186506f8fd27dcea04ca68e221615a1a9","infoHashBuffer":{"type":"Buffer","data":[189,123,225,145,134,80,111,143,210,125,206,160,76,166,142,34,22,21,161,169]},"announce":[],"urlList":[]}}